<svg width="593" height="640" viewBox="0 0 593 640" fill="none" xmlns="http://www.w3.org/2000/svg">
<path d="M217.019 258.738C217.019 235.503 235.888 216.667 259.163 216.667H381.895C405.171 216.667 424.039 235.503 424.039 258.738V381.262C424.039 404.497 405.171 423.333 381.895 423.333H259.163C235.888 423.333 217.019 404.497 217.019 381.262V258.738Z" fill="#151515"/>
<path d="M10 465.405C10 442.169 28.8682 423.333 52.1432 423.333H174.876C198.151 423.333 217.019 442.169 217.019 465.405V587.929C217.019 611.164 198.151 630 174.876 630H52.1432C28.8682 630 10 611.164 10 587.929V465.405Z" fill="#151515"/>
<path d="M424.039 465.405C424.039 442.169 442.907 423.333 466.182 423.333H540.857C564.132 423.333 583 442.169 583 465.405V539.952C583 563.188 564.132 582.024 540.857 582.024H466.182C442.907 582.024 424.039 563.188 424.039 539.952V465.405Z" fill="#151515"/>
<path d="M52.1432 216.667H174.876C198.151 216.667 217.019 235.503 217.019 258.738C217.019 235.503 235.888 216.667 259.163 216.667C235.888 216.667 217.019 197.831 217.019 174.595V52.0714C217.019 28.836 198.151 10 174.876 10H52.1432C28.8682 10 10 28.836 10 52.0714V174.595C10 197.831 28.8682 216.667 52.1432 216.667Z" fill="#151515"/>
<path d="M466.182 57.9762C442.907 57.9762 424.039 76.8122 424.039 100.048V174.595C424.039 197.831 405.171 216.667 381.895 216.667C405.171 216.667 424.039 235.503 424.039 258.738C424.039 235.503 442.907 216.667 466.182 216.667H540.857C564.132 216.667 583 197.831 583 174.595V100.048C583 76.8122 564.132 57.9762 540.857 57.9762H466.182Z" fill="#151515"/>
</svg>
