<svg width="3332" height="640" viewBox="0 0 3332 640" fill="none" xmlns="http://www.w3.org/2000/svg">
<path d="M217.019 258.738C217.019 235.503 235.888 216.667 259.163 216.667H381.895C405.171 216.667 424.039 235.503 424.039 258.738V381.262C424.039 404.497 405.171 423.333 381.895 423.333H259.163C235.888 423.333 217.019 404.497 217.019 381.262V258.738Z" fill="#151515"/>
<path d="M10 465.405C10 442.169 28.8682 423.333 52.1432 423.333H174.876C198.151 423.333 217.019 442.169 217.019 465.405V587.929C217.019 611.164 198.151 630 174.876 630H52.1432C28.8682 630 10 611.164 10 587.929V465.405Z" fill="#151515"/>
<path d="M424.039 465.405C424.039 442.169 442.907 423.333 466.182 423.333H540.857C564.132 423.333 583 442.169 583 465.405V539.952C583 563.188 564.132 582.024 540.857 582.024H466.182C442.907 582.024 424.039 563.188 424.039 539.952V465.405Z" fill="#151515"/>
<path d="M52.1432 216.667H174.876C198.151 216.667 217.019 235.503 217.019 258.738C217.019 235.503 235.888 216.667 259.163 216.667C235.888 216.667 217.019 197.831 217.019 174.595V52.0714C217.019 28.836 198.151 10 174.876 10H52.1432C28.8682 10 10 28.836 10 52.0714V174.595C10 197.831 28.8682 216.667 52.1432 216.667Z" fill="#151515"/>
<path d="M466.182 57.9762C442.907 57.9762 424.039 76.8122 424.039 100.048V174.595C424.039 197.831 405.171 216.667 381.895 216.667C405.171 216.667 424.039 235.503 424.039 258.738C424.039 235.503 442.907 216.667 466.182 216.667H540.857C564.132 216.667 583 197.831 583 174.595V100.048C583 76.8122 564.132 57.9762 540.857 57.9762H466.182Z" fill="#151515"/>
<path d="M818 528.6C809.716 528.6 803 521.884 803 513.6V126.4C803 118.115 809.716 111.4 818 111.4H868.21C872.982 111.4 877.469 113.67 880.296 117.515L1001.94 282.985C1007.96 291.178 1020.22 291.13 1026.18 282.89L1145.71 117.609C1148.53 113.709 1153.05 111.4 1157.86 111.4H1208C1216.28 111.4 1223 118.115 1223 126.4V513.6C1223 521.884 1216.28 528.6 1208 528.6H1161.28C1153 528.6 1146.28 521.884 1146.28 513.6V290.161C1146.28 275.754 1127.95 269.632 1119.29 281.149L1020.15 413.045C1018.47 415.283 1015.83 416.6 1013.03 416.6C1010.2 416.6 1007.53 415.248 1005.85 412.96L906.256 277.149C897.683 265.458 879.16 271.522 879.16 286.019V513.6C879.16 521.884 872.444 528.6 864.16 528.6H818Z" fill="#151515"/>
<path d="M1317.84 528.6C1309.56 528.6 1302.84 521.884 1302.84 513.6V126.4C1302.84 118.115 1309.56 111.4 1317.84 111.4H1364C1372.29 111.4 1379 118.115 1379 126.4V513.6C1379 521.884 1372.29 528.6 1364 528.6H1317.84Z" fill="#151515"/>
<path d="M1474.25 528.6C1465.97 528.6 1459.25 521.884 1459.25 513.6V126.4C1459.25 118.115 1465.97 111.4 1474.25 111.4H1595.33C1639.38 111.4 1677.65 120.36 1710.13 138.28C1742.98 155.826 1768.37 180.28 1786.29 211.64C1804.21 243 1813.17 279.026 1813.17 319.72C1813.17 360.413 1804.21 396.626 1786.29 428.36C1768.37 459.72 1742.98 484.36 1710.13 502.28C1677.65 519.826 1639.38 528.6 1595.33 528.6H1474.25ZM1535.41 446.4C1535.41 454.684 1542.13 461.4 1550.41 461.4H1597.01C1625.38 461.4 1650.02 455.613 1670.93 444.04C1691.84 432.466 1707.89 416.04 1719.09 394.76C1730.66 373.48 1736.45 348.466 1736.45 319.72C1736.45 290.973 1730.66 266.146 1719.09 245.24C1707.52 223.96 1691.28 207.533 1670.37 195.96C1649.84 184.386 1625.38 178.6 1597.01 178.6H1550.41C1542.13 178.6 1535.41 185.315 1535.41 193.6V446.4Z" fill="#151515"/>
<path d="M1888.78 528.6C1880.5 528.6 1873.78 521.884 1873.78 513.6V126.4C1873.78 118.115 1880.5 111.4 1888.78 111.4H2049.62C2090.69 111.4 2122.98 121.853 2146.5 142.76C2170.02 163.666 2181.78 192.413 2181.78 229C2181.78 243.186 2178.98 256.626 2173.38 269.32C2170.41 276.542 2166.41 283.401 2161.38 289.898C2155.38 297.654 2156.24 309.265 2163.55 315.803C2174.22 325.35 2182.17 335.989 2187.38 347.72C2194.85 364.146 2198.58 381.88 2198.58 400.92C2198.58 441.24 2185.33 472.6 2158.82 495C2132.69 517.4 2096.29 528.6 2049.62 528.6H1888.78ZM1949.94 258.24C1949.94 266.524 1956.66 273.24 1964.94 273.24H2053.54C2069.22 273.24 2081.73 268.76 2091.06 259.8C2100.39 250.466 2105.06 238.52 2105.06 223.96C2105.06 209.4 2100.39 197.826 2091.06 189.24C2081.73 180.653 2069.22 176.36 2053.54 176.36H1964.94C1956.66 176.36 1949.94 183.075 1949.94 191.36V258.24ZM1949.94 446.4C1949.94 454.684 1956.66 461.4 1964.94 461.4H2057.46C2076.87 461.4 2092.55 455.986 2104.5 445.16C2116.45 433.96 2122.42 419.213 2122.42 400.92C2122.42 382.626 2116.45 367.88 2104.5 356.68C2092.55 345.48 2076.87 339.88 2057.46 339.88H1964.94C1956.66 339.88 1949.94 346.595 1949.94 354.88V446.4Z" fill="#151515"/>
<path d="M2275.97 528.6C2267.68 528.6 2260.97 521.884 2260.97 513.6V126.4C2260.97 118.115 2267.68 111.4 2275.97 111.4H2322.13C2330.41 111.4 2337.13 118.115 2337.13 126.4V446.4C2337.13 454.684 2343.84 461.4 2352.13 461.4H2500.77C2509.05 461.4 2515.77 468.115 2515.77 476.4V513.6C2515.77 521.884 2509.05 528.6 2500.77 528.6H2275.97Z" fill="#151515"/>
<path d="M2750.09 535.32C2720.23 535.32 2692.6 530.093 2667.21 519.64C2641.83 508.813 2619.61 493.693 2600.57 474.28C2581.91 454.866 2567.35 432.093 2556.89 405.96C2546.81 379.453 2541.77 350.706 2541.77 319.72C2541.77 288.733 2546.81 260.173 2556.89 234.04C2567.35 207.906 2581.91 185.133 2600.57 165.72C2619.61 146.306 2641.83 131.373 2667.21 120.92C2692.6 110.093 2720.23 104.68 2750.09 104.68C2779.59 104.68 2806.28 109.72 2830.17 119.8C2854.07 129.88 2874.23 143.32 2890.65 160.12C2903.53 172.992 2913.53 186.896 2920.67 201.831C2924.01 208.819 2920.57 216.947 2913.55 220.225L2872.31 239.493C2864.39 243.195 2855.07 239.289 2850.86 231.627C2842.93 217.24 2831.93 204.978 2817.85 194.84C2799.19 181.026 2776.6 174.12 2750.09 174.12C2723.96 174.12 2700.81 180.28 2680.65 192.6C2660.87 204.546 2645.37 221.533 2634.17 243.56C2623.35 265.586 2617.93 290.973 2617.93 319.72C2617.93 348.84 2623.35 374.413 2634.17 396.44C2645.37 418.466 2660.87 435.64 2680.65 447.96C2700.81 459.906 2723.96 465.88 2750.09 465.88C2776.6 465.88 2799.19 459.16 2817.85 445.72C2831.97 435.556 2842.99 423.151 2850.91 408.504C2855.09 400.781 2864.44 396.83 2872.4 400.547L2913.55 419.774C2920.57 423.053 2924.01 431.179 2920.68 438.173C2913.54 453.18 2903.53 467.269 2890.65 480.44C2874.23 496.866 2854.07 510.12 2830.17 520.2C2806.28 530.28 2779.59 535.32 2750.09 535.32Z" fill="#151515"/>
<path d="M3002.77 528.6C2994.48 528.6 2987.77 521.884 2987.77 513.6V126.4C2987.77 118.115 2994.48 111.4 3002.77 111.4H3048.93C3057.21 111.4 3063.93 118.115 3063.93 126.4V256.267C3063.93 270.253 3081.38 276.629 3090.39 265.938L3216.23 116.729C3219.08 113.35 3223.28 111.4 3227.7 111.4H3284.29C3297.03 111.4 3303.97 126.292 3295.77 136.05L3178.94 275.067C3174.8 279.998 3174.26 287.025 3177.62 292.525L3307.62 505.792C3313.72 515.788 3306.52 528.6 3294.81 528.6H3240.35C3235.12 528.6 3230.26 525.875 3227.54 521.409L3130.79 362.738C3125.45 353.982 3113.1 353.046 3106.5 360.897L3067.44 407.375C3065.17 410.078 3063.93 413.495 3063.93 417.025V513.6C3063.93 521.884 3057.21 528.6 3048.93 528.6H3002.77Z" fill="#151515"/>
</svg>
